# This file uses centimeters as units for non-parametric coordinates.

mtllib Blanket.mtl
g default
v -1.446281 1.106640 2.290813
v 4.507028 1.054075 2.463730
v 4.686947 1.303906 -2.367257
v -1.464941 1.942978 1.984120
v 4.620250 1.793285 2.105894
v -1.349505 1.786405 -2.099805
v 4.765800 1.805514 -1.916659
v -0.697191 1.804764 -2.104722
v -0.795750 1.949908 2.006249
v -0.836261 1.093986 2.250440
v 3.851947 1.820678 2.088447
v 3.995089 1.829267 -1.949024
v 4.568617 1.203847 2.531228
v 4.710637 1.290601 -2.284657
v 4.575177 1.185627 2.425175
v -1.495280 1.237246 2.229703
v -1.487882 1.920110 1.939700
v -1.416718 1.928810 -0.093489
v -1.320266 1.760973 -2.061833
v -1.381101 1.985674 -0.083967
v 4.655966 1.832513 0.127040
v -1.320223 1.110843 -2.331156
v -1.250113 0.989346 -2.454290
v -1.282926 1.141766 -2.453620
v 4.756488 1.422143 -2.307567
v 4.037735 1.236010 -2.324358
v -0.732217 2.016910 -0.061985
v -0.820270 1.260837 2.318196
v -0.786188 1.978155 -0.068052
v -0.677617 1.102411 -2.290393
v -0.649621 1.150907 -2.401261
v 3.844295 1.018421 2.289662
v 4.486647 1.071601 2.550479
v 3.839721 1.050189 2.381381
v 3.856729 1.426537 2.414708
v 4.604196 1.582638 2.475387
v 3.926504 1.850467 2.149324
v 4.041624 1.042256 -2.131767
v 4.588094 1.562299 2.410892
v 3.840439 1.182292 2.310139
v 4.654823 1.818351 2.145192
v -1.482648 1.405921 2.207903
v -1.404957 1.125621 2.373877
v -1.457567 1.259754 2.325955
v -1.473519 1.427840 2.269800
v -1.391793 1.897366 -1.188641
v -1.464273 1.926249 1.006214
v -1.429715 1.975329 1.033778
v -1.360492 1.922079 -1.188925
v 4.705773 1.818988 -0.972528
v 3.942940 1.907747 0.088846
v 4.672204 1.907461 1.211232
v 4.700371 1.878183 0.124338
v 4.795899 1.829746 -1.950787
v 3.983452 1.944857 0.085817
v 4.061803 1.859734 -1.996309
v -1.319683 1.277201 -2.274645
v -1.313301 1.308109 -2.364530
v -1.214754 1.012988 -2.533440
v 4.020966 1.201351 -2.212173
v 4.766041 1.588171 -2.270242
v 4.757352 1.439958 -2.386215
v 4.032703 1.071401 -2.242709
v 4.050409 1.622714 -2.304090
v -0.767699 1.994062 1.053480
v -0.700704 1.923268 -1.183008
v -0.812199 1.436820 2.300200
v -0.868555 1.061248 2.140250
v -0.851137 1.917288 1.949176
v -0.849709 1.397151 2.207988
v -0.855184 1.222443 2.204160
v -0.679099 1.765320 -2.055137
v -0.741361 1.886897 -1.164973
v -0.824256 1.955973 1.027859
v -0.677915 0.940887 -2.286925
v -0.675533 1.275763 -2.280734
v -0.649147 0.985746 -2.382412
v -0.661001 1.324741 -2.368043
v 1.784949 1.874317 2.063582
v 1.604628 2.095961 0.009791
v 1.663514 1.982749 -2.044676
v 1.735489 1.291734 2.162036
v 1.752926 1.455166 2.279150
v 1.722112 1.252367 2.034045
v 1.732245 1.836232 2.005780
v 1.723500 1.409638 2.150802
v 1.615103 1.941074 -1.993283
v 1.554739 2.058407 0.009254
v 1.908196 1.249971 -2.103143
v 1.644446 1.513301 -2.168670
v 1.667851 1.564448 -2.284192
v 1.919426 1.297122 -2.217531
v 1.669286 1.738382 -2.301611
v 3.879358 1.603510 2.403197
v 3.841079 1.566066 2.305943
v 3.980393 1.890704 -1.013178
v 3.902729 1.916672 1.191149
v 4.689573 1.933726 1.224541
v 4.741311 1.846523 -0.987334
v 3.957145 1.951339 1.204374
v 4.027336 1.926032 -1.035917
v 4.008901 1.585329 -2.214319
v 4.780156 1.609021 -2.331575
v 1.822674 1.983141 1.129118
v 1.636958 2.077127 -1.101779
v 1.765533 1.628831 2.321118
v 1.724741 1.582261 2.210907
v 1.591026 2.040509 -1.086119
v 1.767619 1.946237 1.107872
v 1.634834 1.686136 -2.199805
v -0.798006 2.015796 2.033330
v -1.467197 2.008867 2.011201
v -0.770124 2.068405 1.057420
v -1.432141 2.049672 1.037718
v -0.734754 2.091409 -0.061319
v -1.383637 2.060173 -0.083301
v -0.702286 1.997442 -1.187967
v -1.362074 1.996253 -1.193883
v -0.698742 1.869060 -2.135116
v -1.351056 1.850702 -2.130199
v -0.832107 1.056037 2.297106
v -1.400803 1.087672 2.420544
v -0.816749 1.266718 2.391621
v -1.454046 1.265636 2.399380
v -0.814318 1.473441 2.360274
v -1.475639 1.464461 2.329873
v -1.452135 1.070346 2.263629
v -0.874408 1.024954 2.113066
v -1.487031 1.855490 1.911606
v -0.850287 1.852668 1.921082
v -0.850612 1.367773 2.145583
v -1.483551 1.376542 2.145498
v -0.861761 1.220237 2.130088
v -1.501857 1.235040 2.155631
v -1.320544 1.699517 -2.028435
v -0.679377 1.703865 -2.021740
v -0.740440 1.812769 -1.160341
v -1.390872 1.823239 -1.184009
v -0.782445 1.903717 -0.069121
v -1.412975 1.854371 -0.094557
v -0.820841 1.881631 1.024627
v -1.460857 1.851907 1.002982
v -0.683339 0.890432 -2.266905
v -1.255537 0.938891 -2.434270
v -0.685625 1.079681 -2.220637
v -1.328230 1.088114 -2.261400
v -0.676605 1.244073 -2.216139
v -1.320755 1.245511 -2.210049
v -0.641045 0.959741 -2.431216
v -1.206651 0.986983 -2.582245
v -0.660810 1.364845 -2.428329
v -1.313110 1.669129 -2.424816
v -0.641830 1.172464 -2.471916
v -1.275135 1.163324 -2.524275
vt 0.590020 0.215959
vt 0.590020 0.265071
vt 0.625000 0.266069
vt 0.625000 0.274104
vt 0.625000 0.282138
vt 0.590020 0.283727
vt 0.625000 0.750000
vt 0.625000 0.975896
vt 0.590020 0.966273
vt 0.590020 0.981525
vt 0.625000 0.983931
vt 0.625000 1.000000
vt 0.590020 1.000000
vt 0.625000 0.000000
vt 0.641069 0.000000
vt 0.649104 0.000000
vt 0.649104 0.250000
vt 0.641069 0.250000
vt 0.625000 0.250000
vt 0.350896 0.000000
vt 0.358931 0.000000
vt 0.358931 0.250000
vt 0.350896 0.250000
vt 0.203275 0.000000
vt 0.249804 0.000000
vt 0.296333 0.000000
vt 0.342862 0.000000
vt 0.342862 0.250000
vt 0.296333 0.250000
vt 0.249804 0.250000
vt 0.203275 0.250000
vt 0.625000 0.828275
vt 0.590020 0.837923
vt 0.590020 0.874810
vt 0.625000 0.874804
vt 0.625000 0.921333
vt 0.625000 0.967862
vt 0.590020 0.911709
vt 0.590020 0.943803
vt 0.657138 0.250000
vt 0.703667 0.250000
vt 0.657138 0.000000
vt 0.703667 0.000000
vt 0.750196 0.000000
vt 0.796725 0.000000
vt 0.750196 0.250000
vt 0.796725 0.250000
vt 0.590020 0.306197
vt 0.625000 0.328667
vt 0.625000 0.375196
vt 0.590020 0.338291
vt 0.590020 0.375190
vt 0.625000 0.421725
vt 0.625000 0.468254
vt 0.590020 0.412077
vt 0.125000 0.000000
vt 0.140873 0.000000
vt 0.148809 0.000000
vt 0.156746 0.000000
vt 0.156746 0.250000
vt 0.148809 0.250000
vt 0.140873 0.250000
vt 0.125000 0.250000
vt 0.590020 0.715898
vt 0.590020 0.764875
vt 0.625000 0.765873
vt 0.625000 0.773809
vt 0.625000 0.781746
vt 0.590020 0.783458
vt 0.590020 0.805866
vt 0.843254 0.250000
vt 0.851191 0.250000
vt 0.843254 0.000000
vt 0.851191 0.000000
vt 0.859127 0.000000
vt 0.875000 0.000000
vt 0.859127 0.250000
vt 0.875000 0.250000
vt 0.590020 0.466542
vt 0.590020 0.444134
vt 0.625000 0.476191
vt 0.625000 0.484127
vt 0.590020 0.534102
vt 0.625000 0.500000
vt 0.375000 0.282138
vt 0.375000 0.328667
vt 0.375000 0.375196
vt 0.375000 0.421725
vt 0.375000 0.266069
vt 0.375000 0.274104
vt 0.375000 0.000000
vt 0.404920 0.000000
vt 0.375000 0.250000
vt 0.375000 0.975896
vt 0.375000 0.983931
vt 0.404920 1.000000
vt 0.375000 1.000000
vt 0.375000 0.781746
vt 0.375000 0.828275
vt 0.375000 0.874804
vt 0.404920 0.943803
vt 0.375000 0.921333
vt 0.375000 0.967862
vt 0.375000 0.765873
vt 0.404920 0.805866
vt 0.375000 0.773809
vt 0.375000 0.750000
vt 0.375000 0.468254
vt 0.375000 0.476191
vt 0.404920 0.534102
vt 0.375000 0.484127
vt 0.375000 0.500000
vt 0.404920 0.306197
vt 0.404920 0.338291
vt 0.496435 0.338291
vt 0.496435 0.375190
vt 0.496435 0.412077
vt 0.404920 0.375190
vt 0.404920 0.412077
vt 0.496435 0.265071
vt 0.496435 0.306197
vt 0.496435 0.283727
vt 0.404920 0.265071
vt 0.404920 0.283727
vt 0.496435 0.000000
vt 0.590020 0.000000
vt 0.496435 0.215959
vt 0.404920 0.215959
vt 0.404920 0.966273
vt 0.496435 0.966273
vt 0.496435 0.981525
vt 0.496435 1.000000
vt 0.404920 0.981525
vt 0.404920 0.837923
vt 0.496435 0.837923
vt 0.496435 0.874810
vt 0.496435 0.911709
vt 0.404920 0.874810
vt 0.496435 0.943803
vt 0.404920 0.911709
vt 0.404920 0.715898
vt 0.496435 0.764875
vt 0.496435 0.783458
vt 0.404920 0.764875
vt 0.496435 0.805866
vt 0.404920 0.783458
vt 0.496435 0.715898
vt 0.404920 0.485125
vt 0.404920 0.466542
vt 0.404920 0.444134
vt 0.496435 0.485125
vt 0.496435 0.466542
vt 0.496435 0.444134
vt 0.590020 0.485125
vt 0.496435 0.534102
vt 0.404920 0.306197
vt 0.404920 0.338291
vt 0.375000 0.328667
vt 0.375000 0.282138
vt 0.404920 0.375190
vt 0.375000 0.375196
vt 0.404920 0.412077
vt 0.375000 0.421725
vt 0.404920 0.444134
vt 0.375000 0.468254
vt 0.404920 0.215959
vt 0.404920 0.265071
vt 0.375000 0.266069
vt 0.375000 0.250000
vt 0.404920 0.283727
vt 0.375000 0.274104
vt 0.404920 0.000000
vt 0.375000 0.000000
vt 0.404920 0.943803
vt 0.404920 0.966273
vt 0.375000 0.975896
vt 0.375000 0.967862
vt 0.404920 0.981525
vt 0.375000 0.983931
vt 0.404920 1.000000
vt 0.375000 1.000000
vt 0.404920 0.805866
vt 0.404920 0.837923
vt 0.375000 0.828275
vt 0.375000 0.781746
vt 0.404920 0.874810
vt 0.375000 0.874804
vt 0.404920 0.911709
vt 0.375000 0.921333
vt 0.404920 0.715898
vt 0.404920 0.764875
vt 0.375000 0.765873
vt 0.375000 0.750000
vt 0.404920 0.783458
vt 0.375000 0.773809
vt 0.404920 0.534102
vt 0.375000 0.500000
vt 0.404920 0.466542
vt 0.375000 0.476191
vt 0.404920 0.485125
vt 0.375000 0.484127
vn 0.107336 -0.482198 -0.869462
vn 0.175724 -0.628744 -0.757497
vn -0.126383 -0.047395 0.990849
vn -0.124919 -0.926017 0.356214
vn -0.023767 0.000894 0.999717
vn -0.099063 -0.147517 0.984086
vn -0.006771 0.146267 0.989222
vn -0.032918 0.409334 0.911791
vn 0.097385 0.773776 0.625928
vn 0.007744 0.931394 0.363931
vn -0.016546 -0.943928 -0.329737
vn 0.072810 -0.351405 -0.933388
vn 0.288300 -0.342317 0.894261
vn 0.025758 -0.244177 0.969388
vn -0.000361 -0.931957 -0.362568
vn 0.096344 -0.786319 -0.610262
vn 0.243001 -0.232246 -0.941813
vn 0.066345 -0.238058 -0.968982
vn 0.212570 -0.066364 -0.974890
vn 0.146167 0.256539 -0.955418
vn -0.961009 -0.057751 0.270421
vn -0.962481 -0.100551 0.252032
vn -0.937323 -0.233541 0.258620
vn -0.982405 -0.095833 0.160300
vn -0.992308 0.100146 0.072774
vn -0.996142 0.012678 0.086835
vn -0.981014 0.068753 0.181343
vn -0.942655 0.332657 -0.027207
vn -0.797153 0.602542 -0.038598
vn -0.798548 0.601587 -0.020370
vn -0.826265 0.562377 -0.031918
vn -0.821189 0.569642 -0.034004
vn -0.998420 -0.056141 0.002369
vn -0.999603 -0.002671 -0.028052
vn -0.955881 0.292601 -0.025989
vn -0.995989 -0.017686 -0.087705
vn -0.052865 -0.905388 0.421282
vn 0.042027 -0.878103 0.476623
vn -0.031577 -0.998896 0.034769
vn -0.067734 -0.995792 0.061721
vn -0.047707 -0.998774 0.013217
vn -0.060050 -0.998136 0.010908
vn 0.008582 -0.999430 -0.032652
vn -0.024948 -0.997076 -0.072232
vn 0.048165 0.998067 0.039282
vn 0.157697 0.987341 -0.017009
vn 0.147437 0.988407 -0.036253
vn 0.114282 0.863649 -0.490967
vn 0.026152 0.997048 0.072194
vn 0.059851 0.998179 -0.007563
vn 0.069390 0.995660 -0.062021
vn 0.062018 0.920415 -0.385992
vn -0.964713 -0.095918 -0.245212
vn -0.996494 0.002111 -0.083639
vn -0.996543 -0.073902 -0.037949
vn -0.977213 -0.119246 -0.175597
vn -0.948041 -0.102801 -0.301081
vn -0.923425 -0.258190 -0.283943
vn 0.161143 -0.085834 0.983191
vn 0.055878 0.348838 0.935516
vn 0.078502 -0.662909 0.744573
vn 0.029231 -0.083807 0.996053
vn 0.026433 0.211181 -0.977090
vn -0.016508 0.130539 -0.991306
vn 0.003623 0.296965 -0.954882
vn -0.052066 -0.339751 -0.939073
vn -0.038694 0.686309 0.726281
vn -0.024068 0.988825 0.147126
vn -0.037339 0.999179 0.015739
vn -0.023775 0.998858 0.041436
vn -0.033369 0.999330 -0.015028
vn -0.030405 0.999045 -0.031383
vn -0.020053 0.994992 -0.097927
vn -0.018470 0.993599 -0.111440
vn -0.009737 0.986277 -0.164814
vn 0.121492 0.719161 -0.684140
vn 0.099738 -0.208873 0.972844
vn -0.026333 -0.982174 0.186118
vn 0.027887 0.084129 0.996065
vn 0.049650 0.009549 0.998721
vn -0.039094 0.499334 0.865527
vn -0.025826 0.330231 0.943547
vn -0.124943 -0.811233 -0.571218
vn -0.121296 -0.834678 -0.537216
vn 0.017832 -0.940638 -0.338942
vn 0.012518 -0.785087 -0.619258
vn -0.011956 -0.141962 -0.989800
vn 0.002011 -0.413595 -0.910459
vn -0.142502 -0.239182 -0.960461
vn -0.032491 -0.006440 -0.999451
vn -0.002760 -0.671253 0.741223
vn -0.007109 -0.963779 0.266608
vn -0.002841 -0.992313 0.123718
vn 0.024775 -0.997645 0.063959
vn 0.052961 -0.998552 0.009393
vn 0.041930 -0.998657 0.030433
vn 0.060201 -0.998146 -0.008978
vn 0.046195 -0.998876 -0.010575
vn -0.096066 -0.923967 0.370212
vn -0.094775 -0.927115 0.362596
vn -0.150775 -0.521298 0.839950
vn -0.050148 -0.234426 0.970840
vn -0.009377 -0.309481 0.950859
vn -0.004463 -0.345376 0.938454
vn 0.167317 0.038150 -0.985165
vn 0.041087 -0.921947 -0.385130
vn 0.084806 0.209080 -0.974214
vn 0.138265 0.652214 -0.745319
vn 0.090352 0.197490 -0.976132
vn 0.150284 0.102312 -0.983334
vn 0.013409 0.994229 0.106440
vn -0.004839 0.908486 0.417887
vn 0.020151 0.997807 0.063045
vn -0.007078 0.997702 0.067380
vn 0.004092 0.999975 -0.005721
vn -0.031792 0.999480 0.005456
vn 0.008091 0.999355 -0.034994
vn -0.002980 0.994260 -0.106945
vn -0.065825 0.991559 -0.111704
vn -0.053123 0.614755 -0.786927
vn 0.082484 -0.950737 0.298824
vn -0.027625 -0.377266 0.925693
vn -0.023646 -0.097638 0.994941
vn 0.057980 -0.483387 0.873484
vn -0.024181 0.618726 0.785235
vn 0.006530 -0.026177 0.999636
vn 0.019082 -0.264548 -0.964184
vn -0.012408 -0.193771 -0.980968
vn -0.014405 -0.994138 -0.107150
vn 0.005729 -0.880411 -0.474176
vn 0.025742 -0.515155 -0.856710
vn -0.020251 0.138417 -0.990167
vn 0.027020 0.141187 -0.989614
vn -0.062035 0.487488 -0.870923
vn 0.039483 -0.540437 0.840458
vn 0.003822 -0.993366 0.114933
vn -0.007875 -0.999372 0.034556
vn 0.065899 -0.990360 0.121838
vn -0.003983 -0.999975 0.005884
vn 0.032188 -0.999465 -0.005820
vn -0.019473 -0.997807 -0.063262
vn 0.006915 -0.997648 -0.068193
vn -0.011629 -0.396540 0.917944
vn -0.003506 -0.323761 0.946132
vn -0.009975 0.062531 0.997993
vn -0.077968 0.112020 0.990642
vn 0.005125 -0.578074 0.815968
vn -0.052207 0.046258 0.997564
vn 0.135982 -0.906365 -0.400014
vn 0.017430 -0.250636 -0.967924
vn 0.078618 -0.147420 -0.985945
vn 0.006723 0.017699 -0.999821
vn 0.029037 0.061284 -0.997698
vn -0.008335 0.659208 -0.751915
vn 0.998751 0.000721 0.049967
vn 0.999166 0.027154 0.030494
vn 0.998961 0.032153 0.032290
vn 0.999185 0.026627 0.030334
vn -0.998914 -0.026238 -0.038498
vn -0.998984 -0.025051 -0.037452
vn -0.998555 -0.031696 -0.043393
vn 0.999117 0.030303 0.029102
vn 0.999020 0.031521 0.031078
vn -0.999112 -0.029944 -0.029633
vn -0.998718 -0.031385 -0.039715
vn 0.999736 0.022938 0.001369
vn 0.999263 0.028381 0.025827
vn -0.999453 -0.028162 -0.017323
vn 0.997852 0.049985 0.042337
vn 0.999739 0.022829 0.000803
vn -0.999659 -0.024693 -0.008512
vn 0.995754 -0.049752 -0.077445
vn 0.995947 -0.049170 -0.075307
vn 0.999602 -0.028060 -0.003085
vn 0.970377 -0.081895 -0.227291
vn -0.944855 -0.326393 -0.026770
vn -0.995045 -0.091973 0.037759
vn 0.999625 -0.027374 -0.001145
vn 0.998691 -0.000914 0.051132
vn -0.999121 -0.007608 -0.041226
vn 0.985806 -0.062943 -0.155641
vn 0.974690 -0.077244 -0.209792
vn -0.949802 0.033890 0.311012
vn -0.932620 0.111426 0.343227
vn 0.999218 0.023481 0.031809
vn 0.999999 0.000496 -0.001188
vn 0.997917 -0.048242 -0.042827
vn 0.999995 0.002519 0.001688
vn -0.999784 -0.016432 -0.012724
vn -0.994425 0.100940 0.030486
vn 0.997752 -0.048891 -0.045842
vn 0.993861 -0.049046 -0.099171
vn -0.963912 -0.189379 0.187107
vn 0.997470 0.023543 0.067084
vn 0.998789 0.032162 0.037226
vn 0.997512 0.023783 0.066367
vn 0.999880 0.000987 0.015476
vn -0.999928 0.003180 -0.011612
vn -0.996874 -0.027048 -0.074231
vn 0.998378 0.044068 0.036037
vn 0.998561 0.039394 0.036398
vn -0.998177 -0.044801 -0.040444
vn -0.998838 -0.037877 -0.029815
vn 0.998292 0.046256 0.035685
vn 0.999149 0.025742 0.032217
vn -0.998302 -0.042239 -0.040108
vn -0.998573 -0.038312 -0.037201
vn 0.983171 -0.029687 0.180260
vn 0.997952 -0.034954 0.053564
vn 0.990318 -0.011494 0.138341
vn 0.977222 -0.042060 0.208009
vn -0.949836 -0.069534 -0.304921
vn -0.940935 -0.179747 -0.286936
vn 0.999899 0.000369 0.014203
vn 0.998004 -0.034644 0.052804
vn -0.997891 0.041176 -0.050187
vn 0.991053 0.023661 0.131352
vn 0.969269 -0.055976 0.239549
vn -0.943158 0.086036 -0.321014
vn 0.993926 0.063306 0.090017
vn 0.997774 0.050651 0.043385
vn -0.994432 -0.025005 -0.102368
vn 0.991126 0.024199 0.130703
vn 0.993875 0.063251 0.090624
vn -0.980163 -0.046025 -0.192773
s 1
g Bed_Blanket group1
usemtl initialShadingGroup
f 32/126/1 2/14/2 33/19/3 34/1/4
f 34/1/4 33/19/3 13/3/5 35/2/6
f 35/2/6 13/3/5 36/4/7 94/6/8
f 94/6/8 36/4/7 41/5/9 37/48/10
f 63/83/11 3/84/12 14/7/13 38/64/14
f 11/39/15 5/37/16 39/8/17 95/9/18
f 95/9/18 39/8/17 15/11/19 40/10/20
f 40/10/20 15/11/19 2/12/2 32/13/1
f 15/15/19 39/16/17 36/17/7 13/18/5
f 39/16/17 5/42/16 41/40/9 36/17/7
f 2/14/2 15/15/19 13/18/5 33/19/3
s 4
f 16/21/21 1/91/22 43/93/23 44/22/24
f 17/27/25 42/20/26 45/23/27 4/28/28
f 42/20/26 16/21/21 44/22/24 45/23/27
f 18/25/29 47/26/30 48/29/31 20/30/32
f 47/26/30 17/27/25 4/28/28 48/29/31
f 19/59/33 46/24/34 49/31/35 6/60/36
f 46/24/34 18/25/29 20/30/32 49/31/35
s 1
f 12/70/37 7/68/38 50/32/39 96/33/40
f 96/33/40 50/32/39 21/35/41 51/34/42
f 51/34/42 21/35/41 52/36/43 97/38/44
f 97/38/44 52/36/43 5/37/16 11/39/15
f 41/40/9 5/42/16 52/43/43 98/41/45
f 98/41/45 52/43/43 21/44/41 53/46/46
f 53/46/46 21/44/41 50/45/39 99/47/47
f 99/47/47 50/45/39 7/73/38 54/71/48
f 37/48/10 41/5/9 98/49/45 100/51/49
f 100/51/49 98/49/45 53/50/46 55/52/50
f 55/52/50 53/50/46 99/53/47 101/55/51
f 101/55/51 99/53/47 54/54/48 56/80/52
s 4
f 22/57/53 57/58/54 58/61/55 24/62/56
f 57/58/54 19/59/33 6/60/36 58/61/55
f 23/56/57 22/57/53 24/62/56 59/63/58
s 1
f 38/64/14 14/7/13 25/66/59 60/65/60
f 60/65/60 25/66/59 61/67/61 102/69/62
f 102/69/62 61/67/61 7/68/38 12/70/37
f 54/71/48 7/73/38 61/74/61 103/72/63
f 103/72/63 61/74/61 25/75/59 62/77/64
f 62/77/64 25/75/59 14/76/13 3/78/12
f 64/79/65 56/80/52 54/54/48 103/81/63
f 26/154/66 64/79/65 103/81/63 62/82/64
f 63/83/11 26/154/66 62/82/64 3/84/12
s 9
f 112/159/67 111/156/68 113/157/69 114/158/70
f 114/158/70 113/157/69 115/160/71 116/161/72
f 116/161/72 115/160/71 117/162/73 118/163/74
f 118/163/74 117/162/73 119/164/75 120/165/76
f 122/169/77 121/166/78 123/167/79 124/168/80
f 124/168/80 123/167/79 125/170/81 126/171/82
f 126/171/82 125/170/81 111/156/68 112/159/67
f 127/173/83 128/172/84 121/166/78 122/169/77
f 129/177/85 130/174/86 131/175/87 132/176/88
f 132/176/88 131/175/87 133/178/89 134/179/90
f 134/179/90 133/178/89 128/180/84 127/181/83
f 135/185/91 136/182/92 137/183/93 138/184/94
f 138/184/94 137/183/93 139/186/95 140/187/96
f 140/187/96 139/186/95 141/188/97 142/189/98
f 142/189/98 141/188/97 130/174/86 129/177/85
f 144/193/99 143/190/100 145/191/101 146/192/102
f 146/192/102 145/191/101 147/194/103 148/195/104
f 148/195/104 147/194/103 136/182/92 135/185/91
f 150/197/105 149/196/106 143/190/100 144/193/99
f 120/165/76 119/164/75 151/198/107 152/199/108
f 152/199/108 151/198/107 153/200/109 154/201/110
f 154/201/110 153/200/109 149/196/106 150/197/105
s 1
f 9/113/111 79/121/112 104/115/113 65/114/114
f 65/114/114 104/115/113 80/116/115 27/118/116
f 79/121/112 37/48/10 100/51/49 104/115/113
f 104/115/113 100/51/49 55/52/50 80/116/115
f 80/116/115 55/52/50 101/55/51 105/117/117
f 105/117/117 101/55/51 56/80/52 81/153/118
f 27/118/116 80/116/115 105/117/117 66/119/119
f 66/119/119 105/117/117 81/153/118 8/150/120
f 10/128/121 82/127/122 83/120/123 28/123/124
f 82/127/122 34/1/4 35/2/6 83/120/123
f 83/120/123 35/2/6 94/6/8 106/122/125
f 106/122/125 94/6/8 37/48/10 79/121/112
f 28/123/124 83/120/123 106/122/125 67/124/126
f 67/124/126 106/122/125 79/121/112 9/113/111
f 84/125/127 32/126/1 34/1/4 82/127/122
f 68/92/128 84/125/127 82/127/122 10/128/121
f 69/101/129 85/139/130 107/130/131 70/129/132
f 70/129/132 107/130/131 86/131/133 71/133/134
f 85/139/130 11/39/15 95/9/18 107/130/131
f 107/130/131 95/9/18 40/10/20 86/131/133
f 86/131/133 40/10/20 32/13/1 84/132/127
f 71/133/134 86/131/133 84/132/127 68/96/128
f 72/105/135 87/145/136 108/135/137 73/134/138
f 73/134/138 108/135/137 88/136/139 29/138/140
f 87/145/136 12/70/37 96/33/40 108/135/137
f 108/135/137 96/33/40 51/34/42 88/136/139
f 88/136/139 51/34/42 97/38/44 109/137/141
f 109/137/141 97/38/44 11/39/15 85/139/130
f 29/138/140 88/136/139 109/137/141 74/140/142
f 74/140/142 109/137/141 85/139/130 69/101/129
f 75/141/143 89/147/144 90/142/145 30/144/146
f 89/147/144 38/64/14 60/65/60 90/142/145
f 90/142/145 60/65/60 102/69/62 110/143/147
f 110/143/147 102/69/62 12/70/37 87/145/136
f 30/144/146 90/142/145 110/143/147 76/146/148
f 76/146/148 110/143/147 87/145/136 72/105/135
f 77/110/149 92/155/150 89/147/144 75/141/143
f 92/155/150 63/83/11 38/64/14 89/147/144
f 77/110/149 31/148/151 91/151/152 92/155/150
f 31/148/151 78/149/153 93/152/154 91/151/152
f 78/149/153 8/150/120 81/153/118 93/152/154
f 93/152/154 81/153/118 56/80/52 64/79/65
f 91/151/152 93/152/154 64/79/65 26/154/66
f 92/155/150 91/151/152 26/154/66 63/83/11
s 19
f 9/113/155 65/114/156 113/157/157 111/156/158
s 4
f 48/86/159 4/85/28 112/159/160 114/158/161
s 19
f 65/114/156 27/118/162 115/160/163 113/157/157
s 4
f 20/87/164 48/86/159 114/158/161 116/161/165
s 19
f 27/118/162 66/119/166 117/162/167 115/160/163
s 4
f 49/88/35 20/87/164 116/161/165 118/163/168
s 19
f 66/119/166 8/150/169 119/164/170 117/162/167
s 4
f 6/108/36 49/88/35 118/163/168 120/165/171
s 19
f 10/128/172 28/123/173 123/167/174 121/166/175
s 4
f 44/89/24 43/93/23 122/169/176 124/168/177
s 19
f 28/123/173 67/124/178 125/170/179 123/167/174
s 4
f 45/90/27 44/89/24 124/168/177 126/171/180
s 19
f 67/124/178 9/113/155 111/156/158 125/170/179
s 4
f 4/85/28 45/90/27 126/171/180 112/159/160
s 19
f 68/92/181 10/128/172 121/166/175 128/172/182
s 4
f 43/93/23 1/91/22 127/173/183 122/169/184
s 19
f 69/101/185 70/129/186 131/175/187 130/174/188
s 4
f 42/94/26 17/103/25 129/177/189 132/176/190
s 19
f 70/129/186 71/133/191 133/178/192 131/175/187
s 4
f 16/95/21 42/94/26 132/176/190 134/179/193
s 19
f 71/133/191 68/96/181 128/180/182 133/178/192
s 4
f 1/97/22 16/95/21 134/179/193 127/181/183
s 19
f 72/105/194 73/134/195 137/183/196 136/182/197
s 4
f 46/99/34 19/98/33 135/185/198 138/184/199
s 19
f 73/134/195 29/138/200 139/186/201 137/183/196
s 4
f 18/100/202 46/99/34 138/184/199 140/187/203
s 19
f 29/138/200 74/140/204 141/188/205 139/186/201
s 4
f 47/102/206 18/100/202 140/187/203 142/189/207
s 19
f 74/140/204 69/101/185 130/174/188 141/188/205
s 4
f 17/103/25 47/102/206 142/189/207 129/177/189
s 19
f 75/141/208 30/144/209 145/191/210 143/190/211
s 4
f 22/104/53 23/107/57 144/193/212 146/192/213
s 19
f 30/144/209 76/146/214 147/194/215 145/191/210
s 4
f 57/106/54 22/104/53 146/192/213 148/195/216
s 19
f 76/146/214 72/105/194 136/182/197 147/194/215
s 4
f 19/98/33 57/106/54 148/195/216 135/185/198
s 19
f 77/110/217 75/141/208 143/190/211 149/196/218
s 4
f 23/107/57 59/112/58 150/197/219 144/193/212
s 19
f 8/150/169 78/149/220 151/198/221 119/164/170
s 4
f 58/109/55 6/108/36 120/165/171 152/199/222
s 19
f 78/149/220 31/148/223 153/200/224 151/198/221
s 4
f 24/111/56 58/109/55 152/199/222 154/201/225
s 19
f 31/148/223 77/110/217 149/196/218 153/200/224
s 4
f 59/112/58 24/111/56 154/201/225 150/197/219
